<?xml version="1.0" encoding="utf-8"?>
<!-- Generator: Adobe Illustrator 24.3.0, SVG Export Plug-In . SVG Version: 6.00 Build 0)  -->
<svg version="1.1" id="Layer_1" xmlns="http://www.w3.org/2000/svg" xmlns:xlink="http://www.w3.org/1999/xlink" x="0px" y="0px"
	 viewBox="0 0 711.37 486.1" style="enable-background:new 0 0 711.37 486.1;" xml:space="preserve">
<style type="text/css">
	.st0{fill:#FFFFFF;stroke:#B2B2B2;stroke-miterlimit:10;}
	.st1{fill:none;stroke:#B2B2B2;stroke-miterlimit:10;}
	.st2{fill:none;}
	.st3{fill:#C6C6C6;}
	.st4{font-family:'MyriadPro-Regular';}
	.st5{font-size:36px;}
	.st6{fill:#B2B2B2;}
	.st7{fill:none;stroke:#F07E20;stroke-width:2;stroke-linejoin:round;stroke-miterlimit:10;}
</style>
<circle class="st0" cx="113.12" cy="188.79" r="63.49"/>
<g>
	<line class="st1" x1="519.85" y1="9.78" x2="519.14" y2="352.34"/>
	<line class="st1" x1="531.28" y1="342.41" x2="519.14" y2="352.34"/>
	<line class="st1" x1="531.28" y1="329.25" x2="519.14" y2="339.18"/>
	<line class="st1" x1="531.66" y1="316.1" x2="519.51" y2="326.03"/>
	<line class="st1" x1="531.47" y1="302.94" x2="519.33" y2="312.87"/>
	<line class="st1" x1="531.47" y1="289.79" x2="519.33" y2="299.72"/>
	<line class="st1" x1="531.84" y1="276.63" x2="519.7" y2="286.56"/>
	<line class="st1" x1="531.19" y1="263.48" x2="519.05" y2="273.41"/>
	<line class="st1" x1="531.19" y1="250.32" x2="519.05" y2="260.25"/>
	<line class="st1" x1="531.56" y1="237.17" x2="519.42" y2="247.1"/>
	<line class="st1" x1="531.38" y1="224.02" x2="519.23" y2="233.94"/>
	<line class="st1" x1="531.38" y1="210.86" x2="519.23" y2="220.79"/>
	<line class="st1" x1="531.75" y1="197.71" x2="519.61" y2="207.64"/>
	<line class="st1" x1="531.61" y1="184.55" x2="519.47" y2="194.48"/>
	<line class="st1" x1="531.61" y1="171.4" x2="519.47" y2="181.33"/>
	<line class="st1" x1="531.99" y1="158.24" x2="519.84" y2="168.17"/>
	<line class="st1" x1="531.8" y1="145.09" x2="519.66" y2="155.02"/>
	<line class="st1" x1="531.8" y1="131.93" x2="519.66" y2="141.86"/>
	<line class="st1" x1="532.17" y1="118.78" x2="520.03" y2="128.71"/>
	<line class="st1" x1="531.52" y1="105.62" x2="519.37" y2="115.55"/>
	<line class="st1" x1="531.52" y1="92.47" x2="519.37" y2="102.4"/>
	<line class="st1" x1="531.89" y1="79.31" x2="519.75" y2="89.24"/>
	<line class="st1" x1="531.7" y1="66.16" x2="519.56" y2="76.09"/>
	<line class="st1" x1="531.7" y1="53.01" x2="519.56" y2="62.93"/>
	<line class="st1" x1="532.08" y1="39.85" x2="519.94" y2="49.78"/>
	<line class="st1" x1="531.99" y1="26.7" x2="519.84" y2="36.63"/>
	<line class="st1" x1="531.99" y1="13.54" x2="519.84" y2="23.47"/>
	<line class="st1" x1="532.36" y1="0.39" x2="520.22" y2="10.32"/>
</g>
<rect x="542.61" y="161.93" class="st2" width="168.76" height="66.3"/>
<text transform="matrix(1 0 0 1 542.6125 187.4929)" class="st3 st4 st5">Wall</text>
<rect x="58.79" y="169.52" class="st2" width="168.76" height="66.3"/>
<text transform="matrix(1 0 0 1 58.7946 195.0818)" class="st3 st4 st5">Particle</text>
<g>
	<g>
		<line class="st1" x1="135.38" y1="100.24" x2="130.32" y2="119.94"/>
		<g>
			<polygon class="st6" points="128.56,126.78 127.1,116.13 130.45,119.43 134.97,118.15 			"/>
		</g>
	</g>
</g>
<g>
	<g>
		<line class="st1" x1="161.58" y1="91.74" x2="144.28" y2="125.59"/>
		<g>
			<polygon class="st6" points="141.07,131.88 141.98,121.17 144.52,125.12 149.22,124.87 			"/>
		</g>
	</g>
</g>
<g>
	<g>
		<line class="st1" x1="162.87" y1="126.71" x2="157.1" y2="133.73"/>
		<g>
			<polygon class="st6" points="152.61,139.19 155.79,128.92 157.43,133.33 162.07,134.08 			"/>
		</g>
	</g>
</g>
<g>
	<g>
		<line class="st1" x1="209.22" y1="113" x2="168.18" y2="144.82"/>
		<g>
			<polygon class="st6" points="162.6,149.15 167.97,139.84 168.6,144.5 172.95,146.26 			"/>
		</g>
	</g>
</g>
<g>
	<g>
		<line class="st1" x1="233.1" y1="127.36" x2="176.29" y2="157.58"/>
		<g>
			<polygon class="st6" points="170.06,160.9 176.93,152.64 176.76,157.34 180.75,159.82 			"/>
		</g>
	</g>
</g>
<g>
	<g>
		<line class="st1" x1="203.95" y1="165.79" x2="181.36" y2="171.25"/>
		<g>
			<polygon class="st6" points="174.5,172.91 183.22,166.62 181.88,171.13 185.13,174.52 			"/>
		</g>
	</g>
</g>
<g>
	<g>
		<line class="st1" x1="192.94" y1="186.78" x2="183.56" y2="186.9"/>
		<g>
			<polygon class="st6" points="176.5,186.99 186.39,182.8 184.08,186.89 186.49,190.93 			"/>
		</g>
	</g>
</g>
<g>
	<g>
		<line class="st1" x1="229.95" y1="210.49" x2="182.1" y2="201.86"/>
		<g>
			<polygon class="st6" points="175.15,200.61 185.66,198.38 182.62,201.96 184.22,206.38 			"/>
		</g>
	</g>
</g>
<g>
	<g>
		<line class="st1" x1="189.23" y1="221.16" x2="177.48" y2="216.21"/>
		<g>
			<polygon class="st6" points="170.98,213.47 181.72,213.58 177.97,216.41 178.57,221.08 			"/>
		</g>
	</g>
</g>
<g>
	<g>
		<line class="st1" x1="189.23" y1="242.94" x2="170.3" y2="229.58"/>
		<g>
			<polygon class="st6" points="164.53,225.51 175.01,227.93 170.73,229.89 170.32,234.57 			"/>
		</g>
	</g>
</g>
<g>
	<g>
		<line class="st1" x1="164.66" y1="246.56" x2="160.06" y2="241.45"/>
		<g>
			<polygon class="st6" points="155.33,236.2 165.01,240.88 160.41,241.84 158.97,246.32 			"/>
		</g>
	</g>
</g>
<g>
	<g>
		<line class="st1" x1="153.03" y1="260.26" x2="147.62" y2="250.65"/>
		<g>
			<polygon class="st6" points="144.16,244.5 152.58,251.17 147.88,251.11 145.5,255.16 			"/>
		</g>
	</g>
</g>
<g>
	<g>
		<line class="st1" x1="143.56" y1="284.25" x2="134.67" y2="256.53"/>
		<g>
			<polygon class="st6" points="132.51,249.81 139.42,258.04 134.83,257.04 131.68,260.53 			"/>
		</g>
	</g>
</g>
<g>
	<g>
		<line class="st1" x1="121.72" y1="288.86" x2="119.22" y2="259.87"/>
		<g>
			<polygon class="st6" points="118.61,252.83 123.52,262.4 119.26,260.39 115.42,263.09 			"/>
		</g>
	</g>
</g>
<g>
	<g>
		<line class="st1" x1="92.94" y1="309.39" x2="101.52" y2="258.65"/>
		<g>
			<polygon class="st6" points="102.69,251.69 105.04,262.18 101.43,259.17 97.03,260.82 			"/>
		</g>
	</g>
</g>
<g>
	<g>
		<line class="st1" x1="78.34" y1="275.7" x2="87.12" y2="254.2"/>
		<g>
			<polygon class="st6" points="89.79,247.66 89.79,258.41 86.92,254.68 82.27,255.33 			"/>
		</g>
	</g>
</g>
<g>
	<g>
		<line class="st1" x1="47.39" y1="290.77" x2="73.99" y2="247.37"/>
		<g>
			<polygon class="st6" points="77.68,241.35 75.94,251.96 73.71,247.82 69.01,247.71 			"/>
		</g>
	</g>
</g>
<g>
	<g>
		<line class="st1" x1="33.46" y1="263.04" x2="61.69" y2="237.05"/>
		<g>
			<polygon class="st6" points="66.88,232.27 62.32,242 61.3,237.41 56.81,236.02 			"/>
		</g>
	</g>
</g>
<g>
	<g>
		<line class="st1" x1="35.87" y1="234.25" x2="52.35" y2="224.72"/>
		<g>
			<polygon class="st6" points="58.46,221.19 51.88,229.69 51.89,224.99 47.81,222.65 			"/>
		</g>
	</g>
</g>
<g>
	<g>
		<line class="st1" x1="12.51" y1="225.34" x2="46.44" y2="212.15"/>
		<g>
			<polygon class="st6" points="53.02,209.6 45.22,216.99 45.95,212.34 42.27,209.41 			"/>
		</g>
	</g>
</g>
<g>
	<g>
		<line class="st1" x1="21.94" y1="198.45" x2="42.82" y2="196.42"/>
		<g>
			<polygon class="st6" points="49.85,195.74 40.34,200.75 42.29,196.47 39.55,192.66 			"/>
		</g>
	</g>
</g>
<g>
	<g>
		<line class="st1" x1="0.05" y1="176.56" x2="42.85" y2="180.85"/>
		<g>
			<polygon class="st6" points="49.87,181.56 39.57,184.61 42.32,180.8 40.38,176.52 			"/>
		</g>
	</g>
</g>
<g>
	<g>
		<line class="st1" x1="5.61" y1="152.67" x2="46.33" y2="166.19"/>
		<g>
			<polygon class="st6" points="53.03,168.41 42.3,169.14 45.83,166.02 44.87,161.42 			"/>
		</g>
	</g>
</g>
<g>
	<g>
		<line class="st1" x1="2.43" y1="122.56" x2="52.44" y2="152.29"/>
		<g>
			<polygon class="st6" points="58.51,155.9 47.88,154.31 51.98,152.02 52.03,147.32 			"/>
		</g>
	</g>
</g>
<g>
	<g>
		<line class="st1" x1="40.61" y1="119.62" x2="61.72" y2="139.66"/>
		<g>
			<polygon class="st6" points="66.84,144.52 56.83,140.62 61.34,139.3 62.42,134.72 			"/>
		</g>
	</g>
</g>
<g>
	<g>
		<line class="st1" x1="62.65" y1="113.51" x2="73.39" y2="129.51"/>
		<g>
			<polygon class="st6" points="77.33,135.37 68.41,129.38 73.1,129.07 75.16,124.85 			"/>
		</g>
	</g>
</g>
<g>
	<g>
		<line class="st1" x1="66.32" y1="75" x2="85.85" y2="122.63"/>
		<g>
			<polygon class="st6" points="88.53,129.16 80.99,121.5 85.65,122.14 88.52,118.42 			"/>
		</g>
	</g>
</g>
<g>
	<g>
		<line class="st1" x1="96.23" y1="89.39" x2="100.99" y2="118.1"/>
		<g>
			<polygon class="st6" points="102.14,125.06 96.51,115.91 100.9,117.58 104.53,114.58 			"/>
		</g>
	</g>
</g>
<g>
	<g>
		<line class="st1" x1="116.28" y1="100.93" x2="116.14" y2="118"/>
		<g>
			<polygon class="st6" points="116.08,125.06 112.1,115.08 116.15,117.48 120.23,115.15 			"/>
		</g>
	</g>
</g>
<polyline class="st7" points="501.8,160.52 500.36,194.15 498.58,231.6 496.79,265.02 495.01,294.8 493.23,321.29 491.45,344.8 
	489.67,365.61 487.88,383.98 486.1,400.15 484.32,414.32 482.54,426.7 480.75,437.45 478.97,446.74 477.19,454.71 475.41,461.48 
	473.63,467.18 472.29,470.81 470.95,473.94 469.62,476.61 468.28,478.85 466.94,480.7 465.61,482.18 464.27,483.33 462.93,484.17 
	461.6,484.73 460.26,485.03 458.92,485.1 457.59,484.94 456.25,484.59 454.47,483.84 452.69,482.8 450.9,481.51 448.68,479.6 
	446.45,477.39 443.78,474.42 440.66,470.61 437.09,465.91 432.19,459.06 423.73,446.75 414.37,433.26 408.13,424.66 402.34,417.04 
	396.99,410.39 392.09,404.61 387.19,399.16 382.29,394.02 377.39,389.19 372.49,384.67 367.59,380.43 362.69,376.47 357.79,372.77 
	352.44,369.01 347.09,365.54 341.75,362.32 336.4,359.34 330.61,356.36 324.82,353.62 318.58,350.92 312.34,348.45 305.66,346.04 
	298.53,343.72 291.4,341.62 283.83,339.62 275.81,337.71 267.34,335.93 257.99,334.18 248.18,332.58 237.49,331.06 225.91,329.65 
	213.43,328.35 199.62,327.13 184.47,326.03 167.54,325.01 148.38,324.1 126.55,323.28 101.6,322.56 94.92,322.4 "/>
<rect x="286.84" y="308.67" class="st2" width="168.76" height="66.3"/>
<text transform="matrix(1 0 0 1 286.8378 334.2327)" class="st3 st4 st5">LJ Force</text>
<rect x="31.8" y="13.22" class="st2" width="168.76" height="106.12"/>
<text transform="matrix(1 0 0 1 44.5437 38.7783)"><tspan x="0" y="0" class="st3 st4 st5">Brownian </tspan><tspan x="30.02" y="43.2" class="st3 st4 st5">Force</tspan></text>
</svg>
